<svg width="35" height="34" viewBox="0 0 35 34" fill="none" xmlns="http://www.w3.org/2000/svg">
<path d="M26.0529 25.3419C30.6788 20.7161 30.6788 13.2161 26.0529 8.5902C21.427 3.96434 13.927 3.96434 9.30116 8.5902C4.67529 13.2161 4.6753 20.7161 9.30116 25.3419C13.927 29.9678 21.427 29.9678 26.0529 25.3419Z" fill="#17C5A5"/>
<mask id="mask0_43_1285" style="mask-type:luminance" maskUnits="userSpaceOnUse" x="5" y="5" width="25" height="24">
<path d="M26.0529 25.3419C30.6788 20.7161 30.6788 13.2161 26.0529 8.5902C21.427 3.96434 13.927 3.96434 9.30116 8.5902C4.67529 13.2161 4.6753 20.7161 9.30116 25.3419C13.927 29.9678 21.427 29.9678 26.0529 25.3419Z" fill="white"/>
</mask>
<g mask="url(#mask0_43_1285)">
<path d="M20.048 21.1179C20.7816 20.4547 21.3279 19.4959 21.6851 18.4203C21.8997 18.7152 22.2255 18.4203 22.2668 18.1428C22.2633 17.721 23.047 15.8082 22.1621 15.882L22.1505 15.9053C22.752 7.76761 12.5991 7.77808 13.2065 15.9088L13.1937 15.882C12.3082 15.8111 13.0919 17.7175 13.0884 18.1428C13.1285 18.4185 13.4549 18.7164 13.6701 18.4191C14.0244 19.4954 14.5742 20.4553 15.3078 21.1185C16.0024 21.6566 16.8128 21.9661 17.6791 21.9661C18.5453 21.9661 19.354 21.6566 20.048 21.1179Z" fill="#FDBC91"/>
<path d="M19.9499 21.8207C19.9545 21.5895 19.9819 21.3594 20.0319 21.1336L20.0482 21.1179C19.3541 21.6566 18.5432 21.9661 17.6769 21.9661C16.8107 21.9661 16.0003 21.6566 15.3057 21.1185L15.3225 21.1336C15.3714 21.3595 15.3987 21.5896 15.404 21.8207C16.0759 22.3134 16.8514 22.595 17.6769 22.595C18.5024 22.595 19.2774 22.3163 19.9499 21.8207Z" fill="#F2AD80"/>
<path d="M22.0597 16.1402L22.0481 16.1634H22.261C22.1972 16.1378 22.1277 16.1298 22.0597 16.1402Z" fill="#FDBC91"/>
<path d="M14.2339 14.1624C14.2572 13.0978 15.206 13.0059 15.206 13.0059C19.9893 11.1925 21.1121 13.3672 21.2389 14.4021C21.3593 15.3911 21.9196 17.3109 21.9196 17.3109L22.2291 16.2283C22.2291 16.2248 22.2291 16.2213 22.2291 16.2178C22.2837 15.9752 22.5711 14.5737 22.3355 12.7272C22.161 11.3834 20.8968 9.91964 18.6978 9.67821L18.9979 9.48157C18.5034 9.40225 17.9965 9.46918 17.5395 9.67413C17.4906 9.67937 17.4423 9.68519 17.3935 9.69159C17.6558 9.50426 17.9118 9.34253 17.9118 9.34253C16.9944 9.40885 16.2328 9.86263 15.9408 10.0604C15.5789 9.95047 15.0152 9.85623 14.4142 10.0476L14.8674 10.2635C13.8325 10.602 12.4089 11.8453 13.114 16.2504C13.107 16.2504 13.0971 16.2504 13.0867 16.2504L13.3775 17.3103C13.3775 17.3103 14.2106 15.2276 14.2339 14.1624ZM13.1326 16.2568H13.1448C13.1448 16.2655 13.1448 16.2748 13.1448 16.2841C13.1379 16.2661 13.1326 16.255 13.1326 16.255V16.2568Z" fill="#4D3726"/>
<path d="M21.51 23.5897H21.1493C20.2552 23.5897 19.9311 22.7083 19.9497 21.8206C19.2772 22.3133 18.5023 22.5949 17.6768 22.5949C16.8513 22.5949 16.0758 22.3133 15.4039 21.8206C15.4225 22.7089 15.0996 23.5891 14.2043 23.5897H13.8599L17.6762 25.7899L21.51 23.5897Z" fill="#FDBC91"/>
<path d="M26.7349 25.2214C25.8402 23.7513 23.0326 23.5972 21.5101 23.5896L17.6763 25.7898L13.8599 23.5896C12.341 23.596 9.51708 23.7461 8.61884 25.2214C7.64729 26.8166 7.1272 28.8103 7.1272 28.8103H28.2266C28.2266 28.8103 27.7065 26.8166 26.7349 25.2214Z" fill="#3A5AAB"/>
</g>
</svg>
