<svg width="28" height="26" viewBox="0 0 28 26" fill="none" xmlns="http://www.w3.org/2000/svg">
<path fill-rule="evenodd" clip-rule="evenodd" d="M1.375 5.18452V20.8155C1.37784 21.6634 1.70907 22.4752 2.29575 23.0725C2.88244 23.6698 3.67649 24.0035 4.50312 24H23.2717C24.0984 24.0035 24.8926 23.6698 25.4793 23.0725C26.0659 22.4752 26.3972 21.6634 26.4 20.8155V5.18452C26.3972 4.33672 26.0659 3.52481 25.4793 2.92754C24.8926 2.33028 24.0984 1.99662 23.2717 2.00003H4.50312C3.67649 1.99662 2.88244 2.33028 2.29575 2.92754C1.70907 3.52481 1.37784 4.33672 1.375 5.18452Z" stroke="black" stroke-width="2.5" stroke-linecap="round" stroke-linejoin="round"/>
<path d="M26.4 10.9008C27.1593 10.9008 27.775 10.2852 27.775 9.52579C27.775 8.76637 27.1593 8.15076 26.4 8.15076V10.9008ZM1.375 8.15076C0.615614 8.15076 0 8.76637 0 9.52579C0 10.2852 0.615614 10.9008 1.375 10.9008V8.15076ZM15.4515 16.5456C16.2109 16.5456 16.8265 15.93 16.8265 15.1706C16.8265 14.4112 16.2109 13.7956 15.4515 13.7956V16.5456ZM1.375 13.7956C0.615614 13.7956 0 14.4112 0 15.1706C0 15.93 0.615614 16.5456 1.375 16.5456V13.7956ZM21.7077 16.5456C22.4671 16.5456 23.0827 15.93 23.0827 15.1706C23.0827 14.4112 22.4671 13.7956 21.7077 13.7956V16.5456ZM20.1437 13.7956C19.3844 13.7956 18.7687 14.4112 18.7687 15.1706C18.7687 15.93 19.3844 16.5456 20.1437 16.5456V13.7956ZM26.4 8.15076H1.375V10.9008H26.4V8.15076ZM15.4515 13.7956H1.375V16.5456H15.4515V13.7956ZM21.7077 13.7956H20.1437V16.5456H21.7077V13.7956Z" fill="black"/>
</svg>
