<svg width="49" height="49" viewBox="0 0 49 49" fill="none" xmlns="http://www.w3.org/2000/svg">
<circle cx="24.3972" cy="24.3967" r="23.6833" fill="#E6E6E6"/>
<path d="M18.835 16.1549C18.0951 15.415 16.8954 15.415 16.1555 16.1549C15.4156 16.8949 15.4156 18.0945 16.1555 18.8344L22.3945 25.0734L16.1555 31.3123C15.4156 32.0522 15.4156 33.2519 16.1555 33.9918C16.8954 34.7316 18.0951 34.7316 18.835 33.9918L25.0739 27.7528L31.3129 33.9918C32.0528 34.7316 33.2524 34.7316 33.9924 33.9918C34.7322 33.2519 34.7322 32.0522 33.9924 31.3123L27.7534 25.0734L33.9924 18.8344C34.7322 18.0945 34.7322 16.8949 33.9924 16.1549C33.2524 15.415 32.0528 15.415 31.3129 16.1549L25.0739 22.3939L18.835 16.1549Z" fill="#5E6363"/>
</svg>
