<svg width="30" height="27" viewBox="0 0 30 27" fill="none" xmlns="http://www.w3.org/2000/svg">
<path d="M15.0002 26.49C14.6202 26.49 14.2502 26.35 13.9502 26.06L0.460188 13.04C0.00018841 12.59 -0.129812 11.89 0.150188 11.3L5.14019 0.86C5.39019 0.33 5.92019 0 6.51019 0H23.4902C24.0802 0 24.6102 0.33 24.8602 0.87L29.8502 11.3C30.1302 11.89 30.0002 12.59 29.5402 13.05L16.0502 26.06C15.7502 26.35 15.3802 26.49 15.0002 26.49ZM6.51019 1C6.30019 1 6.13019 1.11 6.04019 1.29L1.05019 11.73C0.960188 11.93 1.00019 12.17 1.16019 12.33L14.6502 25.35C14.8502 25.54 15.1602 25.54 15.3502 25.35L28.8402 12.33C29.0002 12.18 29.0402 11.93 28.9502 11.73L23.9602 1.3C23.8702 1.11 23.7002 1 23.4902 1H6.51019Z" fill="black"/>
<path d="M15 14C11.47 14 5.5 13.47 5.5 11.5C5.5 9.55997 11.27 9.12997 13.04 9.04997C13.35 9.02997 13.55 9.24997 13.56 9.52997C13.57 9.80997 13.36 10.04 13.09 10.05C8.72 10.26 6.61 11.12 6.5 11.51C6.65 12.02 9.7 13 15 13C20.3 13 23.35 12.02 23.5 11.49C23.39 11.12 21.3 10.27 16.97 10.05C16.69 10.04 16.48 9.79997 16.5 9.52997C16.51 9.25997 16.72 9.04997 17.02 9.05997C18.77 9.14997 24.5 9.58997 24.5 11.51C24.5 13.47 18.53 14 15 14Z" fill="black"/>
<path d="M21.5 6H8.5C8.22 6 8 5.78 8 5.5C8 5.22 8.22 5 8.5 5H21.5C21.78 5 22 5.22 22 5.5C22 5.78 21.78 6 21.5 6Z" fill="black"/>
<path d="M15 20.5C14.72 20.5 14.5 20.28 14.5 20V13.5C14.5 13.22 14.72 13 15 13C15.28 13 15.5 13.22 15.5 13.5V20C15.5 20.28 15.28 20.5 15 20.5Z" fill="black"/>
<path d="M15 12C14.72 12 14.5 11.78 14.5 11.5V5.5C14.5 5.22 14.72 5 15 5C15.28 5 15.5 5.22 15.5 5.5V11.5C15.5 11.78 15.28 12 15 12Z" fill="black"/>
</svg>
