<svg width="69" height="69" viewBox="0 0 69 69" fill="none" xmlns="http://www.w3.org/2000/svg">
<path d="M34.2851 68.5704C53.2202 68.5704 68.5702 53.2203 68.5702 34.2852C68.5702 15.35 53.2202 0 34.285 0C15.3499 0 0 15.35 0 34.2852C0 53.2203 15.3499 68.5704 34.2851 68.5704" fill="#00AA4E"/>
<path d="M28.0722 50.326L55.3259 23.0723C55.7801 22.618 56.033 22.0162 56.038 21.3776C56.043 20.7297 55.7938 20.1209 55.3359 19.6632C55.336 19.6621 55.3359 19.663 55.3359 19.663L55.3358 19.6629C54.8894 19.2167 54.2652 18.9626 53.6293 18.965C52.985 18.9677 52.3804 19.2192 51.9266 19.6729L26.4281 45.1715L18.592 37.3352C18.1382 36.8814 17.5334 36.6299 16.8892 36.6274H16.8797C16.2449 36.6274 15.6269 36.8816 15.1829 37.3257C14.2459 38.2628 14.2502 39.7921 15.1927 40.7346L24.2603 49.8021C24.3689 49.9981 24.5045 50.1779 24.6631 50.3362C25.1299 50.8029 25.7434 51.0359 26.3583 51.0358C26.6766 51.0361 26.9919 50.9736 27.286 50.8518C27.5801 50.73 27.8473 50.5513 28.0722 50.326ZM34.2852 0C15.35 0 0 15.35 0 34.2852C0 53.2204 15.35 68.5704 34.2852 68.5704C53.2203 68.5704 68.5704 53.2204 68.5704 34.2852C68.5704 15.3499 53.2203 0 34.2852 0ZM34.2852 3.37874C38.459 3.37874 42.5062 4.19546 46.3144 5.80619C49.9942 7.36261 53.2998 9.59156 56.1393 12.431C58.9788 15.2705 61.2078 18.5761 62.7643 22.2561C64.3749 26.0642 65.1916 30.1114 65.1916 34.2852C65.1916 38.4591 64.3749 42.5063 62.7643 46.3144C61.2078 49.9942 58.9788 53.2999 56.1393 56.1394C53.2998 58.9789 49.9942 61.2078 46.3144 62.7643C42.5062 64.375 38.459 65.1916 34.2852 65.1916C30.1114 65.1916 26.0642 64.375 22.256 62.7643C18.5761 61.2078 15.2705 58.9789 12.4311 56.1394C9.59156 53.2999 7.36261 49.9942 5.80611 46.3144C4.19546 42.5062 3.37874 38.4591 3.37874 34.2852C3.37874 30.1114 4.19546 26.0642 5.80611 22.2561C7.36261 18.5761 9.59156 15.2705 12.4311 12.431C15.2705 9.59156 18.5761 7.36261 22.256 5.80619C26.0642 4.19538 30.1114 3.37874 34.2852 3.37874Z" fill="#F4F4F4"/>
</svg>
