<svg width="21" height="21" viewBox="0 0 21 21" fill="none" xmlns="http://www.w3.org/2000/svg">
<path d="M11.5263 17.2144H8.89771" stroke="white" stroke-width="1.28571" stroke-linecap="round" stroke-linejoin="round"/>
<path d="M14.3192 8.67032V8.64289C14.3192 7.50625 13.8865 6.41616 13.1162 5.61243C12.346 4.80871 11.3013 4.35718 10.212 4.35718C9.12275 4.35718 8.07808 4.80871 7.30784 5.61243C6.53761 6.41616 6.10489 7.50625 6.10489 8.64289V10.7892C6.10483 10.9251 6.06853 11.0584 6.00006 11.174C5.93159 11.2896 5.83365 11.3831 5.71718 11.444L5.304 11.6592C4.99682 11.8191 4.75043 12.0826 4.60479 12.407C4.45916 12.7313 4.42281 13.0975 4.50165 13.4462C4.58049 13.7948 4.7699 14.1054 5.03914 14.3276C5.30839 14.5498 5.64168 14.6706 5.98496 14.6703H14.4391C14.6446 14.7776 14.8707 14.835 15.1005 14.8382C15.3302 14.8414 15.5577 14.7902 15.7659 14.6886C15.974 14.587 16.1574 14.4376 16.3024 14.2516C16.4473 14.0655 16.55 13.8476 16.6028 13.6143C16.6556 13.3809 16.6571 13.1381 16.6072 12.904C16.5573 12.67 16.4573 12.4507 16.3146 12.2627C16.172 12.0748 15.9904 11.9229 15.7836 11.8185C15.5767 11.7141 15.3499 11.6599 15.1201 11.66L14.7069 11.4449C14.5904 11.3838 14.4925 11.2901 14.424 11.1743C14.3556 11.0586 14.3193 10.9252 14.3192 10.7892V8.67032V8.67032Z" stroke="white" stroke-width="1.28571" stroke-linecap="round" stroke-linejoin="round"/>
</svg>
