<svg width="20" height="20" viewBox="0 0 20 20" fill="none" xmlns="http://www.w3.org/2000/svg">
<circle cx="10" cy="10" r="10" fill="#162459"/>
<path d="M9.75353 11.6574C9.75353 11.4325 9.78888 11.2333 9.85957 11.0598C9.93669 10.8862 10.0299 10.732 10.1391 10.597C10.2548 10.4621 10.3769 10.3367 10.5055 10.2211C10.634 10.1054 10.7529 9.99613 10.8621 9.8933C10.9778 9.78405 11.071 9.67158 11.1417 9.5559C11.2188 9.44021 11.2574 9.31168 11.2574 9.17029C11.2574 8.93893 11.161 8.75255 10.9682 8.61116C10.7818 8.46977 10.5312 8.39908 10.2163 8.39908C9.9142 8.39908 9.64427 8.46335 9.40648 8.59188C9.16869 8.71399 8.97268 8.88751 8.81844 9.11245L7.65198 8.428C7.90905 8.03597 8.26573 7.72427 8.72203 7.49291C9.17833 7.25512 9.73104 7.13622 10.3801 7.13622C10.8621 7.13622 11.2863 7.20692 11.6526 7.3483C12.019 7.48327 12.305 7.6825 12.5106 7.94599C12.7227 8.20949 12.8287 8.53404 12.8287 8.91965C12.8287 9.17029 12.7902 9.39201 12.7131 9.58482C12.6359 9.77762 12.5363 9.94472 12.4142 10.0861C12.2921 10.2275 12.1604 10.3592 12.019 10.4813C11.884 10.6035 11.7555 10.7224 11.6334 10.838C11.5112 10.9537 11.4084 11.0758 11.3249 11.2044C11.2478 11.3329 11.2092 11.4839 11.2092 11.6574H9.75353ZM10.4862 14.0771C10.2163 14.0771 9.99453 13.9904 9.82101 13.8168C9.64749 13.6433 9.56073 13.4377 9.56073 13.1999C9.56073 12.9557 9.64749 12.7532 9.82101 12.5925C9.99453 12.4254 10.2163 12.3419 10.4862 12.3419C10.7625 12.3419 10.9843 12.4254 11.1513 12.5925C11.3249 12.7532 11.4116 12.9557 11.4116 13.1999C11.4116 13.4377 11.3249 13.6433 11.1513 13.8168C10.9843 13.9904 10.7625 14.0771 10.4862 14.0771Z" fill="#EAF0F8"/>
</svg>
