<svg width="101" height="86" viewBox="0 0 101 86" fill="none" xmlns="http://www.w3.org/2000/svg">
<path fill-rule="evenodd" clip-rule="evenodd" d="M23.5785 35.371C20.3227 35.371 17.6833 38.0103 17.6833 41.2662C17.6833 44.5222 20.3227 47.1615 23.5785 47.1615C26.8343 47.1615 29.4737 44.5222 29.4737 41.2662C29.4737 38.0103 26.8343 35.371 23.5785 35.371ZM11.7881 41.2662C11.7881 34.7544 17.0668 29.4758 23.5785 29.4758C30.0902 29.4758 35.3689 34.7544 35.3689 41.2662C35.3689 47.7781 30.0902 53.0567 23.5785 53.0567C17.0668 53.0567 11.7881 47.7781 11.7881 41.2662Z" fill="#162459"/>
<path fill-rule="evenodd" clip-rule="evenodd" d="M76.6395 35.371C73.3836 35.371 70.7443 38.0103 70.7443 41.2662C70.7443 44.5222 73.3836 47.1615 76.6395 47.1615C79.8955 47.1615 82.5347 44.5222 82.5347 41.2662C82.5347 38.0103 79.8955 35.371 76.6395 35.371ZM64.8491 41.2662C64.8491 34.7544 70.1277 29.4758 76.6395 29.4758C83.1514 29.4758 88.43 34.7544 88.43 41.2662C88.43 47.7781 83.1514 53.0567 76.6395 53.0567C70.1277 53.0567 64.8491 47.7781 64.8491 41.2662Z" fill="#162459"/>
<path fill-rule="evenodd" clip-rule="evenodd" d="M38.3187 61.9001C39.9464 61.9001 41.2663 63.2201 41.2663 64.8478L41.2681 64.8637C41.2681 64.8637 41.2746 64.8908 41.2863 64.9197C41.3099 64.9774 41.3671 65.0865 41.4956 65.2386C41.7644 65.5564 42.2691 65.969 43.0903 66.3799C44.7345 67.2017 47.2116 67.7954 50.1091 67.7954C53.0066 67.7954 55.4838 67.2017 57.128 66.3799C57.9492 65.969 58.4538 65.5564 58.7226 65.2386C58.8511 65.0865 58.9083 64.9774 58.9319 64.9197C58.9437 64.8908 58.9502 64.8637 58.9502 64.8637L58.9519 64.8478C58.9519 63.2201 60.2719 61.9001 61.8995 61.9001C63.5272 61.9001 64.8471 63.2201 64.8471 64.8478C64.8471 68.1939 62.2114 70.4293 59.7643 71.6526C57.1409 72.9643 53.7235 73.6906 50.1091 73.6906C46.4948 73.6906 43.0773 72.9643 40.4539 71.6526C38.0068 70.4293 35.3711 68.1939 35.3711 64.8478C35.3711 63.2201 36.6908 61.9001 38.3187 61.9001Z" fill="#162459"/>
<path fill-rule="evenodd" clip-rule="evenodd" d="M73.6901 2.9476V14.738H26.5284V2.9476C26.5284 1.3197 25.2087 0 23.5808 0C21.9529 0 20.6332 1.3197 20.6332 2.9476V14.738H14.738C6.59845 14.738 0 21.3365 0 29.476V70.7425C0 78.882 6.59845 85.4805 14.738 85.4805H85.4805C93.62 85.4805 100.219 78.882 100.219 70.7425V29.476C100.219 21.3365 93.62 14.738 85.4805 14.738H79.5853V2.9476C79.5853 1.3197 78.2654 0 76.6377 0C75.01 0 73.6901 1.3197 73.6901 2.9476ZM14.738 20.6332C9.85425 20.6332 5.89521 24.5923 5.89521 29.476V70.7425C5.89521 75.6261 9.85425 79.5853 14.738 79.5853H85.4805C90.3641 79.5853 94.3233 75.6261 94.3233 70.7425V29.476C94.3233 24.5923 90.3641 20.6332 85.4805 20.6332H14.738Z" fill="#162459"/>
</svg>
