<svg width="19" height="17" viewBox="0 0 19 17" fill="none" xmlns="http://www.w3.org/2000/svg">
<path fill-rule="evenodd" clip-rule="evenodd" d="M4.75615 7.04141C4.16428 7.04141 3.68447 7.5212 3.68447 8.11309C3.68447 8.70497 4.16428 9.18476 4.75615 9.18476C5.34802 9.18476 5.82783 8.70497 5.82783 8.11309C5.82783 7.5212 5.34802 7.04141 4.75615 7.04141ZM2.61279 8.11309C2.61279 6.92931 3.57241 5.96973 4.75615 5.96973C5.9399 5.96973 6.89951 6.92931 6.89951 8.11309C6.89951 9.29686 5.9399 10.2564 4.75615 10.2564C3.57241 10.2564 2.61279 9.29686 2.61279 8.11309Z" fill="#F8F8F8"/>
<path fill-rule="evenodd" clip-rule="evenodd" d="M14.4014 7.04141C13.8095 7.04141 13.3297 7.5212 13.3297 8.11309C13.3297 8.70497 13.8095 9.18476 14.4014 9.18476C14.9933 9.18476 15.4731 8.70497 15.4731 8.11309C15.4731 7.5212 14.9933 7.04141 14.4014 7.04141ZM12.2581 8.11309C12.2581 6.92931 13.2176 5.96973 14.4014 5.96973C15.5852 5.96973 16.5448 6.92931 16.5448 8.11309C16.5448 9.29686 15.5852 10.2564 14.4014 10.2564C13.2176 10.2564 12.2581 9.29686 12.2581 8.11309Z" fill="#F8F8F8"/>
<path fill-rule="evenodd" clip-rule="evenodd" d="M7.43574 11.864C7.73163 11.864 7.97158 12.104 7.97158 12.3999L7.9719 12.4027C7.9719 12.4027 7.97308 12.4077 7.97523 12.4129C7.97951 12.4234 7.98991 12.4433 8.01327 12.4709C8.06214 12.5287 8.15387 12.6037 8.30316 12.6784C8.60205 12.8278 9.05237 12.9357 9.5791 12.9357C10.1058 12.9357 10.5562 12.8278 10.855 12.6784C11.0043 12.6037 11.0961 12.5287 11.1449 12.4709C11.1683 12.4433 11.1787 12.4234 11.183 12.4129C11.1851 12.4077 11.1863 12.4027 11.1863 12.4027L11.1866 12.3999C11.1866 12.104 11.4266 11.864 11.7225 11.864C12.0184 11.864 12.2583 12.104 12.2583 12.3999C12.2583 13.0081 11.7792 13.4145 11.3343 13.6369C10.8574 13.8753 10.2361 14.0074 9.5791 14.0074C8.92205 14.0074 8.3008 13.8753 7.8239 13.6369C7.37905 13.4145 6.8999 13.0081 6.8999 12.3999C6.8999 12.104 7.13981 11.864 7.43574 11.864Z" fill="#F8F8F8"/>
<path fill-rule="evenodd" clip-rule="evenodd" d="M13.8657 1.14717V3.29053H5.29228V1.14717C5.29228 0.851234 5.05238 0.611328 4.75644 0.611328C4.46051 0.611328 4.2206 0.851234 4.2206 1.14717V3.29053H3.14892C1.66925 3.29053 0.469727 4.49005 0.469727 5.96972V13.4715C0.469727 14.9511 1.66925 16.1507 3.14892 16.1507H16.0091C17.4887 16.1507 18.6883 14.9511 18.6883 13.4715V5.96972C18.6883 4.49005 17.4887 3.29053 16.0091 3.29053H14.9374V1.14717C14.9374 0.851234 14.6974 0.611328 14.4016 0.611328C14.1057 0.611328 13.8657 0.851234 13.8657 1.14717ZM3.14892 4.36221C2.26111 4.36221 1.54141 5.08191 1.54141 5.96972V13.4715C1.54141 14.3593 2.26111 15.079 3.14892 15.079H16.0091C16.8969 15.079 17.6166 14.3593 17.6166 13.4715V5.96972C17.6166 5.08191 16.8969 4.36221 16.0091 4.36221H3.14892Z" fill="#F8F8F8"/>
</svg>
